<?xml version="1.0" encoding="UTF-8" standalone="no"?>
<!DOCTYPE svg PUBLIC "-//W3C//DTD SVG 1.1//EN" "http://www.w3.org/Graphics/SVG/1.1/DTD/svg11.dtd">
<svg width="100%" height="100%" viewBox="0 0 603 502" version="1.1" xmlns="http://www.w3.org/2000/svg" xmlns:xlink="http://www.w3.org/1999/xlink" xml:space="preserve" xmlns:serif="http://www.serif.com/" style="fill-rule:evenodd;clip-rule:evenodd;stroke-linejoin:round;stroke-miterlimit:2;">
    <g transform="matrix(1,0,0,1,-1810.46,-1073.77)">
        <g transform="matrix(1,0,0,1,-0.507658,-0.399273)">
            <g id="hex-landing-design" serif:id="hex landing design">
                <g id="Hexagons" transform="matrix(0.331144,1.71484,-0.826392,0.159581,1319.86,1035.49)">
                    <g transform="matrix(0.0654702,-0.703535,0.339039,0.135856,-69.8893,-784.351)">
                        <path d="M333.985,470.438L441.881,532.732L441.881,657.32L333.985,719.614L226.089,657.32L226.089,532.732L333.985,470.438Z" style="fill:rgb(255,101,98);"/>
                    </g>
                    <g transform="matrix(0.0654702,-0.703535,0.339039,0.135856,3.23271,-836.21)">
                        <path d="M333.985,470.438L441.881,532.732L441.881,657.32L333.985,719.614L226.089,657.32L226.089,532.732L333.985,470.438Z" style="fill:rgb(255,101,98);"/>
                    </g>
                    <g transform="matrix(0.0654702,-0.703535,0.339039,0.135856,17.9035,-993.86)">
                        <path d="M333.985,470.438L441.881,532.732L441.881,657.32L333.985,719.614L226.089,657.32L226.089,532.732L333.985,470.438Z" style="fill:rgb(255,101,98);"/>
                    </g>
                    <g transform="matrix(0.0654702,-0.703535,0.339039,0.135856,-55.2185,-942.001)">
                        <path d="M333.985,470.438L441.881,532.732L441.881,657.32L333.985,719.614L226.089,657.32L226.089,532.732L333.985,470.438Z" style="fill:rgb(255,101,98);"/>
                    </g>
                </g>
                <g id="Hexagons1" serif:id="Hexagons" transform="matrix(0.331144,1.71484,-0.826392,0.159581,1117.65,1152.61)">
                    <g transform="matrix(0.0654702,-0.703535,0.339039,0.135856,-69.8893,-784.351)">
                        <path d="M333.985,470.438L441.881,532.732L441.881,657.32L333.985,719.614L226.089,657.32L226.089,532.732L333.985,470.438Z" style="fill:rgb(255,101,98);"/>
                    </g>
                    <g transform="matrix(0.0654702,-0.703535,0.339039,0.135856,3.23271,-836.21)">
                        <path d="M333.985,470.438L441.881,532.732L441.881,657.32L333.985,719.614L226.089,657.32L226.089,532.732L333.985,470.438Z" style="fill:rgb(255,101,98);"/>
                    </g>
                    <g transform="matrix(0.0654702,-0.703535,0.339039,0.135856,17.9035,-993.86)">
                        <path d="M333.985,470.438L441.881,532.732L441.881,657.32L333.985,719.614L226.089,657.32L226.089,532.732L333.985,470.438Z" style="fill:rgb(255,101,98);"/>
                    </g>
                    <g transform="matrix(0.0654702,-0.703535,0.339039,0.135856,-55.2185,-942.001)">
                        <path d="M333.985,470.438L441.881,532.732L441.881,657.32L333.985,719.614L226.089,657.32L226.089,532.732L333.985,470.438Z" style="fill:rgb(255,101,98);"/>
                    </g>
                </g>
                <g id="Hexagons2" serif:id="Hexagons" transform="matrix(0.331144,1.71484,-0.826392,0.159581,1455,1269.52)">
                    <g transform="matrix(0.0654702,-0.703535,0.339039,0.135856,-69.8893,-784.351)">
                        <path d="M333.985,470.438L441.881,532.732L441.881,657.32L333.985,719.614L226.089,657.32L226.089,532.732L333.985,470.438Z" style="fill:rgb(24,192,240);"/>
                    </g>
                    <g transform="matrix(0.0654702,-0.703535,0.339039,0.135856,3.23271,-836.21)">
                        <path d="M333.985,470.438L441.881,532.732L441.881,657.32L333.985,719.614L226.089,657.32L226.089,532.732L333.985,470.438Z" style="fill:rgb(24,192,240);"/>
                    </g>
                </g>
                <g id="Hexagons3" serif:id="Hexagons" transform="matrix(0.331144,1.71484,-0.826392,0.159581,982.512,918.355)">
                    <g transform="matrix(0.0654702,-0.703535,0.339039,0.135856,3.23271,-836.21)">
                        <path d="M333.985,470.438L441.881,532.732L441.881,657.32L333.985,719.614L226.089,657.32L226.089,532.732L333.985,470.438Z" style="fill:rgb(24,192,240);"/>
                    </g>
                    <g transform="matrix(0.0654702,-0.703535,0.339039,0.135856,17.9035,-993.86)">
                        <path d="M333.985,470.438L441.881,532.732L441.881,657.32L333.985,719.614L226.089,657.32L226.089,532.732L333.985,470.438Z" style="fill:rgb(24,192,240);"/>
                    </g>
                </g>
            </g>
        </g>
    </g>
</svg>
